Coordinates
version=1
nRows=23
nColumns=23
inDegrees=yes

Units are S.I. units (second, meters, Newtons, ...)
If the header above contains a line with 'inDegrees', this indicates whether rotational values are in degrees (yes) or radians (no).

endheader
time	pelvis_tilt	pelvis_list	pelvis_rotation	pelvis_tx	pelvis_ty	pelvis_tz	hip_flexion_r	hip_adduction_r	hip_rotation_r	knee_angle_r	knee_angle_r_beta	ankle_angle_r	subtalar_angle_r	mtp_angle_r	hip_flexion_l	hip_adduction_l	hip_rotation_l	knee_angle_l	knee_angle_l_beta	ankle_angle_l	subtalar_angle_l	mtp_angle_l
     22.50000000	     -4.19102340	      4.07677775	      0.56964851	      2.21664357	      1.01198156	      1.04520070	     -7.96589780	     -5.20146675	     -5.18658530	     51.93191004	      0.90638282	    -12.41170260	     -9.91315433	      0.00000000	     22.63167548	      7.81119466	     -0.43415826	     14.99202432	      0.26166019	      2.32962516	     -4.33287690	      0.00000000
     22.50666667	     -3.48633854	      4.26879163	      1.04026400	      2.21708768	      1.00867428	      1.04448380	     -7.94244638	     -5.46520867	     -5.54829072	     54.73605322	      0.95532435	    -11.80247567	    -10.88259749	      0.00000000	     21.93259133	      8.18446231	     -0.43572425	     16.35310003	      0.28541544	      1.93503568	     -4.78908063	      0.00000000
     22.51333333	     -3.46423588	      4.34162332	      1.51763444	      2.21701932	      1.00417526	      1.04370516	     -6.97020929	     -5.69014317	     -5.90836535	     57.81400981	      1.00904482	    -11.11634454	    -11.49638386	      0.00000000	     22.23972384	      8.43040140	     -0.37350516	     18.37342059	      0.32067668	      1.87289866	     -5.58086675	      0.00000000
     22.52000000	     -3.22461257	      4.48959655	      2.02038831	      2.21696396	      0.99972078	      1.04287359	     -6.25366970	     -6.02767418	     -6.36129508	     60.76834298	      1.06060767	    -10.63080520	    -12.20571472	      0.00000000	     22.31903557	      8.75143542	     -0.34003801	     20.58701173	      0.35931114	      1.98865994	     -6.20368216	      0.00000000
     22.52666667	     -3.04585302	      4.64558264	      2.52396628	      2.21671881	      0.99499642	      1.04202061	     -5.41138693	     -6.43903318	     -6.86525637	     63.71229456	      1.11198931	    -10.22660347	    -12.86613935	      0.00000000	     22.54364067	      9.07107044	     -0.34179031	     23.08862616	      0.40297255	      2.44487405	     -6.77105406	      0.00000000
     22.53333333	     -2.34419889	      5.03553315	      2.89733785	      2.21656928	      0.99092443	      1.04135119	     -5.17150737	     -7.15058451	     -7.37592870	     66.46312661	      1.16000039	    -10.04417823	    -13.64246157	      0.00000000	     22.02168996	      9.59867932	     -0.33227088	     25.36169810	      0.44264514	      2.88408740	     -7.42836417	      0.00000000
     22.54000000	     -2.83572347	      4.99996430	      3.42195692	      2.21573713	      0.98500860	      1.04039713	     -3.36774987	     -7.48455990	     -7.80845120	     69.51039654	      1.21318528	     -9.58623414	    -14.07667695	      0.00000000	     23.27433215	      9.68335461	     -0.51853002	     28.64163738	      0.49989088	      4.67092757	     -7.42170451	      0.00000000
     22.54666667	     -2.72067069	      5.15325791	      3.85830263	      2.21502727	      0.98001582	      1.03958456	     -2.28981816	     -8.07165550	     -8.30873494	     72.27008133	      1.26135087	     -9.27389656	    -14.56935259	      0.00000000	     23.59722987	      9.95057677	     -0.57284716	     31.46266549	      0.54912710	      6.18925236	     -7.47410834	      0.00000000
     22.55333333	     -2.60541398	      5.34016272	      4.23679946	      2.21419748	      0.97515690	      1.03883466	     -1.14258744	     -8.73486338	     -8.73343790	     74.94669881	      1.30806666	     -8.90942141	    -15.00444542	      0.00000000	     23.80219044	     10.24674192	     -0.56336399	     34.10681764	      0.59527627	      7.93274776	     -7.48796770	      0.00000000
     22.56000000	     -2.48071128	      5.54274379	      4.49959416	      2.21327981	      0.97053236	      1.03826228	      0.08201087	     -9.42119451	     -8.98640402	     77.51195911	      1.35283890	     -8.46854115	    -15.38939058	      0.00000000	     23.85880634	     10.49202071	     -0.63804375	     36.50966460	      0.63721386	      9.76180396	     -7.28076928	      0.00000000
     22.56666667	     -2.34680788	      5.75265992	      4.72649919	      2.21225715	      0.96624664	      1.03775747	      1.36545467	    -10.11028814	     -9.14904101	     79.92970930	      1.39503660	     -7.94771073	    -15.66043503	      0.00000000	     23.73089043	     10.72996471	     -0.65866423	     38.60495281	      0.67378353	     11.61432381	     -6.96841332	      0.00000000
     22.57333333	     -2.20098660	      5.99815896	      4.93906856	      2.21114985	      0.96237291	      1.03727341	      2.69131796	    -10.87048458	     -9.27981754	     82.19078221	      1.43449976	     -7.34061262	    -15.76472650	      0.00000000	     23.37717595	     11.05197435	     -0.49075951	     40.31588954	      0.70364501	     13.32207727	     -6.86134027	      0.00000000
     22.58000000	     -2.06009819	      6.25642342	      5.06522490	      2.20998242	      0.95896100	      1.03696113	      4.11467903	    -11.60426240	     -9.23578589	     84.27752224	      1.47092025	     -6.66130751	    -15.75912511	      0.00000000	     22.83277642	     11.34679768	     -0.35665790	     41.66748866	      0.72723487	     14.95112085	     -6.68333005	      0.00000000
     22.58666667	     -1.68066272	      6.51981339	      5.11320814	      2.20882277	      0.95640942	      1.03683585	      5.31751241	    -12.23810187	     -9.04545041	     86.07487231	      1.50228993	     -6.06743061	    -15.96064866	      0.00000000	     21.80190382	     11.61894457	     -0.14638438	     42.60322514	      0.74356655	     16.40501541	     -6.76960342	      0.00000000
     22.59333333	     -1.83337657	      6.71260552	      5.13560390	      2.20749186	      0.95357587	      1.03674243	      7.27226700	    -12.86319410	     -8.74892980	     87.85450634	      1.53335040	     -5.10890791	    -15.27234585	      0.00000000	     21.27649934	     11.76429703	     -0.18126766	     43.38580306	      0.75722511	     17.88642113	     -6.12940131	      0.00000000
     22.60000000	     -1.68651400	      6.88112426	      5.09040161	      2.20625904	      0.95175305	      1.03685483	      8.90262908	    -13.31366338	     -8.33761948	     89.26988263	      1.55805337	     -4.36322656	    -14.91057070	      0.00000000	     20.21282221	     11.84906581	     -0.14946608	     43.78860032	      0.76425525	     19.17746344	     -5.71875339	      0.00000000
     22.60666667	     -1.46014843	      6.97769228	      5.02769107	      2.20507089	      0.95062905	      1.03708927	     10.45743938	    -13.57971739	     -7.87832767	     90.37594440	      1.57735779	     -3.70623074	    -14.69314320	      0.00000000	     18.90551790	     11.85907287	     -0.02799118	     43.89426186	      0.76609939	     20.37110402	     -5.53768157	      0.00000000
     22.61333333	     -1.28870089	      6.90379443	      4.95502254	      2.20394249	      0.95011498	      1.03728249	     12.07347910	    -13.60269351	     -7.41899169	     91.15456866	      1.59094735	     -3.19180732	    -14.37859571	      0.00000000	     17.51413952	     11.75147648	      0.28354912	     43.72066331	      0.76306953	     21.25307640	     -5.26090748	      0.00000000
     22.62000000	     -1.29674771	      6.99541228	      4.79073252	      2.20290327	      0.94959102	      1.03764325	     13.95141396	    -13.88615763	     -6.90763022	     91.87200980	      1.60346906	     -2.07377496	    -12.92471251	      0.00000000	     16.26103068	     11.56382686	     -0.13184441	     43.42634887	      0.75793277	     22.25510664	     -4.23603244	      0.00000000
     22.62666667	     -1.15734076	      6.84668761	      4.68767420	      2.20201545	      0.95001951	      1.03799563	     15.55242585	    -13.71969904	     -6.46280059	     92.11688708	      1.60774298	     -1.43248740	    -12.24462145	      0.00000000	     14.70093189	     11.25917267	     -0.06079851	     42.85862994	      0.74802421	     23.02707381	     -3.66192048	      0.00000000
     22.63333333	     -1.06756383	      6.61535505	      4.63205225	      2.20127917	      0.95099119	      1.03828402	     17.11587173	    -13.45850017	     -6.14314297	     92.04583606	      1.60650290	     -0.81262220	    -11.45714455	      0.00000000	     13.08381004	     10.88877226	      0.09759624	     42.06466565	      0.73416691	     23.57388579	     -3.11914308	      0.00000000
     22.64000000	     -0.93110260	      6.33055036	      4.66081557	      2.20079923	      0.95255289	      1.03847814	     18.48349299	    -13.16439889	     -6.02099916	     91.64609041	      1.59952602	     -0.17291055	    -10.46438029	      0.00000000	     11.30614413	     10.46101844	      0.34172146	     41.06500404	      0.71671953	     23.93197743	     -2.41216599	      0.00000000
     22.64666667	     -0.87320256	      5.97035106	      4.68586600	      2.20043589	      0.95454574	      1.03866417	     19.85468282	    -12.72774923	     -5.92695362	     90.95160894	      1.58740504	      0.40901288	     -9.64898499	      0.00000000	      9.53299662	      9.98452698	      0.66995743	     39.86885206	      0.69584274	     24.04767022	     -1.95445776	      0.00000000
